<svg width="16" height="16" viewBox="0 0 16 16" xmlns="http://www.w3.org/2000/svg" class=""><path fill-rule="evenodd" clip-rule="evenodd" d="M10 1C10.1683 1 10.3238 1.08454 10.4158 1.2223L10.4472 1.27639L11.309 3H14H14.5C14.7564 3 14.9678 3.19302 14.9966 3.44169L15 3.5C15 3.75642 14.807 3.96775 14.5583 3.99664L14.5 4H14V10C14 10.828 13.3268 11.5 12.5 11.5H9.97159L11.9069 14.2094C12.0674 14.4341 12.0153 14.7464 11.7906 14.9069C11.5832 15.055 11.3012 15.0221 11.1328 14.8394L11.0931 14.7906L8.7425 11.5H7.257L4.90687 14.7906C4.75871 14.998 4.48123 15.0583 4.26268 14.9402L4.20938 14.9069C4.00196 14.7587 3.94166 14.4812 4.05985 14.2627L4.09313 14.2094L6.02841 11.5H3.5C2.67319 11.5 2 10.828 2 10V4H1.5C1.22386 4 1 3.77614 1 3.5C1 3.24358 1.19302 3.03225 1.44169 3.00336L1.5 3H2H4.6905L5.55279 1.27639C5.62807 1.12582 5.77323 1.02455 5.93757 1.0039L6 1H10ZM7 10.5H9H12.5C12.7749 10.5 13 10.2753 13 10V4H11H5H3V10C3 10.2556 3.19408 10.4676 3.44192 10.4966L3.5 10.5H7ZM9.6905 2L10.1908 3H5.80901L6.309 2H9.6905Z"></path></svg>